/* XPM */
static char * C:\Users\maxime\Downloads\addon wow Offi\logo_xpm[] = {
"16 16 217 2",
"  	c None",
". 	c #FEFEFE",
"+ 	c #FAFAFB",
"@ 	c #E4E5E5",
"# 	c #FCFCFC",
"$ 	c #D4D5D6",
"% 	c #C3C3C4",
"& 	c #F6F6F6",
"* 	c #CACACB",
"= 	c #FAFAFA",
"- 	c #FBFBFB",
"; 	c #F2F2F3",
"> 	c #D1D2D4",
", 	c #CECFD1",
"' 	c #B4B4B7",
") 	c #A6A7AA",
"! 	c #97999D",
"~ 	c #7C7D80",
"{ 	c #E1E1E1",
"] 	c #D7D7D7",
"^ 	c #EFEFEF",
"/ 	c #FFFFFF",
"( 	c #F5F5F6",
"_ 	c #EBEBEC",
": 	c #D8D8D6",
"< 	c #D4D0C6",
"[ 	c #C8C4B8",
"} 	c #B9B3A4",
"| 	c #B6AB8D",
"1 	c #8E8B81",
"2 	c #787A7E",
"3 	c #5B5B5C",
"4 	c #BBBABB",
"5 	c #FDFDFD",
"6 	c #F0EFF0",
"7 	c #F0F0F1",
"8 	c #ECECED",
"9 	c #E5E4E2",
"0 	c #EDE9DC",
"a 	c #F5E8CA",
"b 	c #D8D4C8",
"c 	c #C5BDA9",
"d 	c #EBCF81",
"e 	c #E6C66D",
"f 	c #A29366",
"g 	c #53555D",
"h 	c #888889",
"i 	c #C5C5C6",
"j 	c #F0F0F0",
"k 	c #D8D9DA",
"l 	c #DADBDD",
"m 	c #DFDDD9",
"n 	c #F4F2EC",
"o 	c #FEF9EC",
"p 	c #F2ECDC",
"q 	c #BFBFC0",
"r 	c #AEACA8",
"s 	c #D0BD8A",
"t 	c #FFD666",
"u 	c #F8CC48",
"v 	c #998853",
"w 	c #383941",
"x 	c #5A595A",
"y 	c #DEDEDF",
"z 	c #E0E0E2",
"A 	c #C8C6C4",
"B 	c #EAE2CF",
"C 	c #FFF7E3",
"D 	c #FFF6E2",
"E 	c #CECECE",
"F 	c #B9B8B5",
"G 	c #C2BEB3",
"H 	c #9D9A8F",
"I 	c #EBC865",
"J 	c #FECF43",
"K 	c #F3C219",
"L 	c #4B4944",
"M 	c #69696D",
"N 	c #C2C2C4",
"O 	c #B1B2B5",
"P 	c #CBC6B9",
"Q 	c #F5E5BD",
"R 	c #FFF2CC",
"S 	c #E2DDD0",
"T 	c #B4B5B5",
"U 	c #B4AB99",
"V 	c #A8A089",
"W 	c #878786",
"X 	c #B9A465",
"Y 	c #FACA3A",
"Z 	c #FAC40A",
"` 	c #927D31",
" .	c #141420",
"..	c #6D6C6F",
"+.	c #9FA0A3",
"@.	c #C6BDA4",
"#.	c #FFEAA9",
"$.	c #F4E5BD",
"%.	c #B3B1AB",
"&.	c #ACA9A0",
"*.	c #C5BDA7",
"=.	c #C7B892",
"-.	c #989280",
";.	c #88806B",
">.	c #E6BA2B",
",.	c #FBC402",
"'.	c #B2942B",
").	c #181928",
"!.	c #909092",
"~.	c #CECECF",
"{.	c #8F9094",
"].	c #BFB391",
"^.	c #FFE596",
"/.	c #BEB9AB",
"(.	c #AAA390",
"_.	c #CBBA8C",
":.	c #A89E83",
"<.	c #928D7D",
"[.	c #717172",
"}.	c #686664",
"|.	c #8B7939",
"1.	c #F2BD02",
"2.	c #AD9030",
"3.	c #1E1E2C",
"4.	c #9E9E9F",
"5.	c #AAAAAC",
"6.	c #808185",
"7.	c #AEA181",
"8.	c #D1BE8E",
"9.	c #8D8F91",
"0.	c #C2B285",
"a.	c #E3CA87",
"b.	c #CDB678",
"c.	c #AD9E70",
"d.	c #7C7769",
"e.	c #726C59",
"f.	c #3E3F42",
"g.	c #8B6E0F",
"h.	c #897639",
"i.	c #161520",
"j.	c #777679",
"k.	c #F4F4F4",
"l.	c #B2B3B5",
"m.	c #7F7A6D",
"n.	c #968D72",
"o.	c #6D6E6E",
"p.	c #706F6C",
"q.	c #6C6B68",
"r.	c #6E6B60",
"s.	c #766D55",
"t.	c #494949",
"u.	c #3D3C3A",
"v.	c #202024",
"w.	c #4A422A",
"x.	c #3C3833",
"y.	c #656468",
"z.	c #FBFBFC",
"A.	c #F8F8F8",
"B.	c #6B6B6C",
"C.	c #52545A",
"D.	c #978759",
"E.	c #F2C53A",
"F.	c #FBCB34",
"G.	c #FBCA2C",
"H.	c #FAC61A",
"I.	c #FAC407",
"J.	c #F7C002",
"K.	c #E6B300",
"L.	c #D5A805",
"M.	c #6E6446",
"N.	c #121118",
"O.	c #454448",
"P.	c #DDDDDD",
"Q.	c #FCFCFD",
"R.	c #DFDFE0",
"S.	c #A4A4A5",
"T.	c #3C3E49",
"U.	c #8B793F",
"V.	c #E7B60E",
"W.	c #F5C005",
"X.	c #F9C304",
"Y.	c #F4BF05",
"Z.	c #E0AF05",
"`.	c #CAA216",
" +	c #6E6344",
".+	c #16151C",
"++	c #727174",
"@+	c #CBCACC",
"#+	c #BABABB",
"$+	c #49494A",
"%+	c #373942",
"&+	c #3D3C39",
"*+	c #7D6928",
"=+	c #A28628",
"-+	c #9E842D",
";+	c #786834",
">+	c #343133",
",+	c #313037",
"'+	c #2B292E",
")+	c #E3E3E3",
"!+	c #D2D2D3",
"~+	c #A09FA1",
"{+	c #141219",
"]+	c #484953",
"^+	c #191927",
"/+	c #1E1E2B",
"(+	c #35343F",
"_+	c #1B1A20",
":+	c #C2C1C2",
"<+	c #AEADAF",
"[+	c #E3E2E3",
"}+	c #F3F3F3",
"|+	c #A8A7A9",
"1+	c #838285",
"2+	c #78777B",
"3+	c #D8D8D9",
"4+	c #B2B1B3",
". . . . + @ # $ % & * = . . . . ",
". . - = ; > , ' ) ! ~ { ] ^ / . ",
". / ( _ _ : < [ } | 1 2 3 4 / / ",
"5 6 7 8 9 0 a b c d e f g h i j ",
"# k l m n o p q r s t u v w x y ",
". z A B C D E F G H I J K L M / ",
"N O P Q R S T U V W X Y Z `  ...",
"@ +.@.#.$.%.&.*.=.-.;.>.,.'.).!.",
"~.{.].^./.(._.:.<.[.}.|.1.2.3.4.",
"5.6.7.8.9.0.a.b.c.d.e.f.g.h.i.j.",
"k.l.m.n.o.p.q.r.s.t.u.v.w.x.y.z.",
"A.B.C.D.E.F.G.H.I.J.K.L.M.N.O.P.",
"Q.R.S.T.U.V.W.X.Y.Z.`. +.+++@+& ",
". / #+$+%+&+*+=+-+;+>+,+'+% / / ",
". / )+!+~+{+]+^+/+(+_+:+<+[+/ . ",
". . / / }+|+)+1+2+3+4+# / / . . "};
